<mxfile host="Electron" modified="2023-12-15T03:39:56.689Z" agent="Mozilla/5.0 (Windows NT 10.0; Win64; x64) AppleWebKit/537.36 (KHTML, like Gecko) draw.io/22.1.2 Chrome/114.0.5735.289 Electron/25.9.4 Safari/537.36" etag="uJDbiruviahkqcP0zzlv" version="22.1.2" type="device">
  <diagram id="C5RBs43oDa-KdzZeNtuy" name="Page-1">
    <mxGraphModel dx="1927" dy="942" grid="1" gridSize="10" guides="1" tooltips="1" connect="1" arrows="1" fold="1" page="1" pageScale="1" pageWidth="827" pageHeight="1169" math="0" shadow="0">
      <root>
        <mxCell id="WIyWlLk6GJQsqaUBKTNV-0" />
        <mxCell id="WIyWlLk6GJQsqaUBKTNV-1" parent="WIyWlLk6GJQsqaUBKTNV-0" />
        <mxCell id="JH60CekcMsmpfP16ASKF-9" style="edgeStyle=orthogonalEdgeStyle;rounded=0;orthogonalLoop=1;jettySize=auto;html=1;exitX=0.5;exitY=1;exitDx=0;exitDy=0;exitPerimeter=0;entryX=0.5;entryY=0;entryDx=0;entryDy=0;" edge="1" parent="WIyWlLk6GJQsqaUBKTNV-1" source="JH60CekcMsmpfP16ASKF-10" target="JH60CekcMsmpfP16ASKF-12">
          <mxGeometry relative="1" as="geometry" />
        </mxCell>
        <mxCell id="JH60CekcMsmpfP16ASKF-10" value="Start" style="strokeWidth=2;html=1;shape=mxgraph.flowchart.start_1;whiteSpace=wrap;" vertex="1" parent="WIyWlLk6GJQsqaUBKTNV-1">
          <mxGeometry x="120" y="30" width="100" height="60" as="geometry" />
        </mxCell>
        <mxCell id="JH60CekcMsmpfP16ASKF-11" style="edgeStyle=orthogonalEdgeStyle;rounded=0;orthogonalLoop=1;jettySize=auto;html=1;exitX=0.5;exitY=1;exitDx=0;exitDy=0;entryX=0.5;entryY=0;entryDx=0;entryDy=0;" edge="1" parent="WIyWlLk6GJQsqaUBKTNV-1" source="JH60CekcMsmpfP16ASKF-12" target="JH60CekcMsmpfP16ASKF-14">
          <mxGeometry relative="1" as="geometry" />
        </mxCell>
        <mxCell id="JH60CekcMsmpfP16ASKF-12" value="Input:&lt;br&gt;&lt;div&gt;double radius;&lt;br&gt;&lt;/div&gt;" style="rounded=1;whiteSpace=wrap;html=1;absoluteArcSize=1;arcSize=12;strokeWidth=2;shape=parallelogram;perimeter=parallelogramPerimeter;size=0.23;" vertex="1" parent="WIyWlLk6GJQsqaUBKTNV-1">
          <mxGeometry x="75" y="120" width="190" height="80" as="geometry" />
        </mxCell>
        <mxCell id="JH60CekcMsmpfP16ASKF-13" style="edgeStyle=orthogonalEdgeStyle;rounded=0;orthogonalLoop=1;jettySize=auto;html=1;exitX=0.5;exitY=1;exitDx=0;exitDy=0;entryX=0.5;entryY=0;entryDx=0;entryDy=0;" edge="1" parent="WIyWlLk6GJQsqaUBKTNV-1" source="JH60CekcMsmpfP16ASKF-14" target="JH60CekcMsmpfP16ASKF-16">
          <mxGeometry relative="1" as="geometry" />
        </mxCell>
        <mxCell id="JH60CekcMsmpfP16ASKF-14" value="&lt;div&gt;double volume = (3.0 / 4.0) * M_PI * pow(radius, 3);&lt;/div&gt;&lt;div&gt;double surfaceArea = 4 * M_PI * pow(radius, 2);&lt;/div&gt;" style="verticalLabelPosition=middle;verticalAlign=middle;html=1;shape=label;whiteSpace=wrap;rounded=1;size=0.14;arcSize=14;labelPosition=center;align=center;absoluteArcSize=1;strokeWidth=2;" vertex="1" parent="WIyWlLk6GJQsqaUBKTNV-1">
          <mxGeometry x="5" y="230" width="330" height="60" as="geometry" />
        </mxCell>
        <mxCell id="JH60CekcMsmpfP16ASKF-15" value="End" style="strokeWidth=2;html=1;shape=mxgraph.flowchart.terminator;whiteSpace=wrap;" vertex="1" parent="WIyWlLk6GJQsqaUBKTNV-1">
          <mxGeometry x="120" y="470" width="100" height="60" as="geometry" />
        </mxCell>
        <mxCell id="JH60CekcMsmpfP16ASKF-16" value="Output:&lt;br&gt;&lt;div&gt;&lt;div&gt;&quot;Об&#39;єм кулі: &quot; volume &quot; кубічних одиниць&quot;;&lt;/div&gt;&lt;div&gt;&quot;Площа поверхні кулі: &quot; surfaceArea &quot; квадратних одиниць&quot;&lt;/div&gt;&lt;/div&gt;" style="rounded=1;whiteSpace=wrap;html=1;absoluteArcSize=1;arcSize=12;strokeWidth=2;shape=parallelogram;perimeter=parallelogramPerimeter;size=0.23;" vertex="1" parent="WIyWlLk6GJQsqaUBKTNV-1">
          <mxGeometry x="-68.75" y="320" width="477.5" height="120" as="geometry" />
        </mxCell>
        <mxCell id="JH60CekcMsmpfP16ASKF-17" style="edgeStyle=orthogonalEdgeStyle;rounded=0;orthogonalLoop=1;jettySize=auto;html=1;exitX=0.5;exitY=1;exitDx=0;exitDy=0;entryX=0.5;entryY=0;entryDx=0;entryDy=0;entryPerimeter=0;" edge="1" parent="WIyWlLk6GJQsqaUBKTNV-1" source="JH60CekcMsmpfP16ASKF-16" target="JH60CekcMsmpfP16ASKF-15">
          <mxGeometry relative="1" as="geometry" />
        </mxCell>
      </root>
    </mxGraphModel>
  </diagram>
</mxfile>
